<?xml version="1.0" encoding="utf-8"?>
<!-- Generator: Adobe Illustrator 23.0.2, SVG Export Plug-In . SVG Version: 6.00 Build 0)  -->
<svg version="1.1" id="图层_1" xmlns="http://www.w3.org/2000/svg" xmlns:xlink="http://www.w3.org/1999/xlink" x="0px" y="0px"
	 viewBox="0 0 128 128" style="enable-background:new 0 0 128 128;" xml:space="preserve">
<path d="M64,96c0-17.7,14.3-32,32-32s32,14.3,32,32s-14.3,32-32,32l0,0C78.3,128,64,113.7,64,96z M78.2,99.6h14.2v14.2h7.1V99.6
	h14.2v-7.1H99.6V78.2h-7.1v14.2H78.2V99.6z M0.1,104.4c-1.7-18.1,32.5-27.6,35-30.2c1.7-2.9,2.6-6.1,2.5-9.5
	c-8.5-9.1-13-21.2-12.5-33.6c0-8.7,0-31.1,25.9-31.1s25.9,23.3,25.9,33.6c-0.3,11.7-5,22.8-13.3,31c-4.9,10.3-7.7,21.4-8.3,32.8
	c0.7,8.7,3.8,17,8.9,24.1H31.1C26.7,121.6,1.6,120.9,0.1,104.4z"/>
</svg>
