<?xml version="1.0" encoding="utf-8"?>
<!-- Generator: Adobe Illustrator 23.0.2, SVG Export Plug-In . SVG Version: 6.00 Build 0)  -->
<svg version="1.1" id="图层_1" xmlns="http://www.w3.org/2000/svg" xmlns:xlink="http://www.w3.org/1999/xlink" x="0px" y="0px"
	 viewBox="0 0 128 128" style="enable-background:new 0 0 128 128;" xml:space="preserve">
<path d="M104.1,48h15.8c4.5,0,8.1-3.6,8.1-8c0-4.4-3.6-8-8-8c0,0-0.1,0-0.1,0h-15.8c-4.4,0-8,3.6-8,8C96.1,44.4,99.7,48,104.1,48z
	 M120,64h-8c-4.4,0-8,3.6-8,8c0,4.4,3.6,8,8,8h8c4.4,0,8-3.6,8-8C128,67.6,124.5,64,120,64z M47.4,72C23.6,72,3.8,92.3,0.1,118.9
	c-0.7,4.8,3.1,9.1,7.9,9.1h78.9c4.8,0,8.6-4.3,7.9-9.1C91.1,92.3,71.3,72,47.4,72z"/>
<path d="M15.4,32c0,17.7,14.3,32,32,32c17.7,0,32-14.3,32-32c0,0,0,0,0,0c0-17.7-14.3-32-32-32S15.4,14.3,15.4,32z"/>
</svg>
