<?xml version="1.0" encoding="utf-8"?>
<!-- Generator: Adobe Illustrator 23.0.2, SVG Export Plug-In . SVG Version: 6.00 Build 0)  -->
<svg version="1.1" id="图层_1" xmlns="http://www.w3.org/2000/svg" xmlns:xlink="http://www.w3.org/1999/xlink" x="0px" y="0px"
	 viewBox="0 0 128 128" style="enable-background:new 0 0 128 128;" xml:space="preserve">
<path d="M66.5,113.5V79.8c0-5.4,2.7-10.2,7.1-12.9v-0.5c0,0,16.5-8.6,16-35.9C89,19.8,82.4,0,61,0h-1.1c-22,0-28,19.3-28.6,30.5
	c-0.6,25.7,16,35.9,16,35.9s2.2,2.1,2.2,5.9c0,1.1-1.7,2.7-2.8,3.8c-9.3,7-41.8,14.5-44,29.5c-1.6,6.4-11.5,16.6,20.9,20.9
	c8.8,1.1,20.9,1.6,37.4,1.6c6.6,0,12.1,0,17.1-0.5c-2.8-1.6-5-3.2-5.5-3.7C69.8,122.7,66.5,118.9,66.5,113.5L66.5,113.5z"/>
<path d="M121.6,69.8H83.2c-3.2,0-6.4,2.3-6.4,5.2v36.7c0,1.2,1.3,2.3,1.3,2.3l21.8,13.4c1.3,0.6,1.9,0.6,2.6,0.6
	c0.6,0,1.3,0,2.6-1.2l21.8-13.4c0,0,1.3-0.6,1.3-1.7V75.1C128,72.2,125.5,69.8,121.6,69.8L121.6,69.8z M121,90.2c-2.6,2.9-7,7-7,7
	s0.6,4.7,1.3,8.1c0,1.2-1.3,2.3-2.6,2.3h-1.3c-3.2-1.2-8.3-3.5-9-4.1c-1.3,0.6-5.8,2.3-9.6,4.1h-1.3c-1.3,0-2.6-1.2-2.6-2.3
	c0.6-3.5,1.3-8.1,1.3-8.1s-4.5-4.7-7-7c-0.6-1.2-0.6-2.3,1.3-2.3c3.8-0.6,9.6-1.7,9.6-1.7s3.2-4.7,5.1-7.6c2.6-2.9,2.6-2.9,3.2-2.9
	c0.6,0,0.6,0,2.6,2.3c1.9,2.9,5.1,7.6,5.1,7.6s5.8,1.2,9.6,1.7C121.6,87.9,122.3,89.6,121,90.2L121,90.2z"/>
</svg>
