<?xml version="1.0" encoding="utf-8"?>
<!-- Generator: Adobe Illustrator 23.0.2, SVG Export Plug-In . SVG Version: 6.00 Build 0)  -->
<svg version="1.1" id="图层_1" xmlns="http://www.w3.org/2000/svg" xmlns:xlink="http://www.w3.org/1999/xlink" x="0px" y="0px"
	 viewBox="0 0 128 128" style="enable-background:new 0 0 128 128;" xml:space="preserve">
<style type="text/css">
	.st0{fill:#BFCBD9;}
</style>
<path class="st0" d="M102,18.7H25.3c-3.5,0-6.4,2.9-6.4,6.4v76.7c0,3.5,2.9,6.4,6.4,6.4H102c3.5,0,6.4-2.8,6.4-6.3c0,0,0,0,0-0.1
	V25.1C108.4,21.6,105.5,18.7,102,18.7L102,18.7L102,18.7z M25.3,101c0,0,5.2-31.8,15.7-31.8c10.4,0,9.2,8.9,17,8.9
	s11.1-27.4,21.6-27.4C90.2,50.6,102,101,102,101H25.3z"/>
<path class="st0" d="M13,37.9H6.6c-3.5,0-6.3,2.8-6.3,6.3v38.4c0,3.5,2.8,6.3,6.3,6.3H13C13,89,13,37.9,13,37.9z M115.2,37.9h6.5
	c3.5,0,6.3,2.8,6.3,6.3v38.4c0,3.5-2.9,6.3-6.3,6.3h-6.5C115.2,89,115.2,37.9,115.2,37.9z M41.8,37.9c5.3,0,9.6,4.3,9.6,9.6
	c0,5.3-4.3,9.6-9.6,9.6c-5.3,0-9.6-4.3-9.6-9.6C32.2,42.2,36.4,37.9,41.8,37.9C41.7,37.9,41.7,37.9,41.8,37.9z"/>
<path class="st0" d="M41.8,58.9c-6.3,0-11.4-5.1-11.4-11.4c0-6.3,5.1-11.4,11.4-11.4l0,0c6.3,0,11.4,5.1,11.4,11.4
	C53.2,53.8,48.1,58.9,41.8,58.9z M41.8,39.7c-4.3-0.1-7.8,3.3-8,7.5c-0.1,4.3,3.3,7.8,7.5,8c0.1,0,0.3,0,0.4,0
	c4.3,0,7.7-3.5,7.7-7.7S46,39.7,41.8,39.7L41.8,39.7z"/>
</svg>
